<svg xmlns="http://www.w3.org/2000/svg" xmlns:xlink="http://www.w3.org/1999/xlink" width="430" height="932" viewBox="0 0 430 932" fill="none">
<rect x="0" y="0" width="0" height="0" fill="rgba(249, 249, 249, 1)" />
<path     fill="#681002"  d="M0 932L430 932L430 0L0 0L0 932Z">
</path>
<g >
<path     fill="#681002" fill-opacity="0.1" d="M164.696 321.68Q156.2 318.992 151.04 314.744Q145.88 310.496 143.048 304.16Q140.168 310.496 135.008 314.744Q129.848 318.992 121.352 321.68L121.352 314.816Q126.536 312.704 129.968 310.208Q133.4 307.712 135.776 304.016Q138.152 300.32 139.832 294.704L121.4 294.704L121.4 288.464L139.88 288.464L139.832 277.52L146.168 277.52L146.168 288.464L164.6 288.464L164.6 294.704L146.216 294.704Q147.896 300.32 150.272 304.016Q152.648 307.712 156.08 310.208Q159.512 312.704 164.696 314.816L164.696 321.68ZM170.6 283.328L176.936 283.328L176.936 313.424L187.832 313.424L187.832 277.52L194.168 277.52L194.168 313.424L205.064 313.424L205.064 283.328L211.4 283.328L211.4 319.664L170.6 319.664L170.6 283.328ZM216.92 294.224Q222.152 287.744 224.168 278L230.216 278Q229.352 283.232 227.672 287.888L227.672 321.2L221.48 321.2L221.48 299.024Q219.272 301.76 216.92 303.776L216.92 294.224ZM228.44 297.296Q232.184 287.552 234.2 278L240.2 278Q240.008 279.152 239.528 281.456L260.6 281.456L260.6 287.648L246.296 287.648L246.296 294.08L259.016 294.08L259.016 300.224L246.296 300.224L246.296 306.512L259.016 306.512L259.016 312.656L246.296 312.656L246.296 321.2L240.056 321.2L240.056 287.648L238.088 287.648Q236.936 292.4 235.112 297.296L228.44 297.296ZM269.096 278.576L269.096 296.24L304.904 296.24L304.904 278.576L269.096 278.576ZM285.56 320.72L285.56 299.264L265.736 299.264L265.736 320.72L285.56 320.72ZM271.736 305.36L279.56 305.36L279.56 314.624L271.736 314.624L271.736 305.36ZM275.384 284.528L298.616 284.528L298.616 290.288L275.384 290.288L275.384 284.528ZM308.264 320.72L308.264 299.264L288.44 299.264L288.44 320.72L308.264 320.72ZM294.44 305.36L302.264 305.36L302.264 314.624L294.44 314.624L294.44 305.36Z">
</path>
<path     fill="#FFFFFF"  d="M164.696 321.68Q156.2 318.992 151.04 314.744Q145.88 310.496 143.048 304.16Q140.168 310.496 135.008 314.744Q129.848 318.992 121.352 321.68L121.352 314.816Q126.536 312.704 129.968 310.208Q133.4 307.712 135.776 304.016Q138.152 300.32 139.832 294.704L121.4 294.704L121.4 288.464L139.88 288.464L139.832 277.52L146.168 277.52L146.168 288.464L164.6 288.464L164.6 294.704L146.216 294.704Q147.896 300.32 150.272 304.016Q152.648 307.712 156.08 310.208Q159.512 312.704 164.696 314.816L164.696 321.68ZM170.6 283.328L176.936 283.328L176.936 313.424L187.832 313.424L187.832 277.52L194.168 277.52L194.168 313.424L205.064 313.424L205.064 283.328L211.4 283.328L211.4 319.664L170.6 319.664L170.6 283.328ZM216.92 294.224Q222.152 287.744 224.168 278L230.216 278Q229.352 283.232 227.672 287.888L227.672 321.2L221.48 321.2L221.48 299.024Q219.272 301.76 216.92 303.776L216.92 294.224ZM228.44 297.296Q232.184 287.552 234.2 278L240.2 278Q240.008 279.152 239.528 281.456L260.6 281.456L260.6 287.648L246.296 287.648L246.296 294.08L259.016 294.08L259.016 300.224L246.296 300.224L246.296 306.512L259.016 306.512L259.016 312.656L246.296 312.656L246.296 321.2L240.056 321.2L240.056 287.648L238.088 287.648Q236.936 292.4 235.112 297.296L228.44 297.296ZM269.096 278.576L269.096 296.24L304.904 296.24L304.904 278.576L269.096 278.576ZM285.56 320.72L285.56 299.264L265.736 299.264L265.736 320.72L285.56 320.72ZM271.736 305.36L279.56 305.36L279.56 314.624L271.736 314.624L271.736 305.36ZM275.384 284.528L298.616 284.528L298.616 290.288L275.384 290.288L275.384 284.528ZM308.264 320.72L308.264 299.264L288.44 299.264L288.44 320.72L308.264 320.72ZM294.44 305.36L302.264 305.36L302.264 314.624L294.44 314.624L294.44 305.36Z">
</path>
<path fill-rule="evenodd"  fill="rgba(0, 0, 0, 1)"  d="M143.042,306.435c-1.89133,3.55067 -4.35733,6.57767 -7.398,9.081c-3.54,2.914 -8.20333,5.28633 -13.99,7.117l-1.302,0.412v-8.901l0.623,-0.254c3.38067,-1.37733 6.18233,-2.87433 8.405,-4.491c2.18667,-1.59 4.03833,-3.56467 5.555,-5.924c1.34933,-2.09867 2.528,-4.689 3.536,-7.771h-18.071v-8.24h18.476l-0.048,-10.944h8.34v10.944h18.432v8.24h-18.023c1.008,3.082 2.18667,5.67233 3.536,7.771c1.51667,2.35933 3.36833,4.334 5.555,5.924c2.22267,1.61667 5.02433,3.11367 8.405,4.491l0.623,0.254v8.901l-1.302,-0.412c-5.78667,-1.83067 -10.45,-4.203 -13.99,-7.117c-3.04067,-2.50333 -5.49467,-5.53033 -7.362,-9.081zM142.488,305.331c0.19333,-0.38467 0.38,-0.775 0.56,-1.171c0.17733,0.39733 0.36167,0.78867 0.553,1.174c1.84267,3.708 4.32233,6.84467 7.439,9.41c3.23533,2.66333 7.454,4.86667 12.656,6.61c0.32933,0.11067 0.66267,0.21933 1,0.326v-6.864c-3.456,-1.408 -6.328,-2.944 -8.616,-4.608c-2.288,-1.664 -4.224,-3.728 -5.808,-6.192c-1.44067,-2.24133 -2.68933,-5.012 -3.746,-8.312c-0.10533,-0.328 -0.20867,-0.66133 -0.31,-1h18.384v-6.24h-18.432v-10.944h-6.336l0.004,1l0.04,8.944l0.004,1h-18.48v6.24h18.432c-0.10133,0.33867 -0.20467,0.672 -0.31,1c-1.05667,3.3 -2.30533,6.07067 -3.746,8.312c-1.584,2.464 -3.52,4.528 -5.808,6.192c-2.288,1.664 -5.16,3.2 -8.616,4.608v6.864c0.33733,-0.10667 0.67067,-0.21533 1,-0.326c5.202,-1.74333 9.42067,-3.94667 12.656,-6.61c3.11733,-2.566 5.61067,-5.70367 7.48,-9.413zM177.936,312.424h8.896v-35.904h8.336v35.904h8.896v-30.096h8.336v38.336h-42.8v-38.336h8.336zM176.936,312.424v-29.096h-6.336v36.336h40.8v-36.336h-6.336v30.096h-10.896v-35.904h-6.336v35.904h-10.896zM223.354,277h8.041l-0.192,1.163c-0.576,3.48667 -1.41967,6.78633 -2.531,9.899v5.729c1.91733,-5.378 3.434,-10.71067 4.55,-15.998l0.167,-0.793h7.991l-0.194,1.164c-0.094,0.564 -0.238,1.328 -0.432,2.292h20.846v8.192h-14.304v4.432h12.72v8.144h-12.72v4.288h12.72v8.144h-12.72v8.544h-8.24v-33.552h-0.186c-0.74867,2.95867 -1.689,5.95767 -2.821,8.997l-0.242,0.651h-7.135v23.904h-8.192v-20.483c-0.95,1.03067 -1.91967,1.97 -2.909,2.818l-1.651,1.415v-12.079l0.222,-0.275c3.38667,-4.19467 5.73567,-9.461 7.047,-15.799zM227.672,287.888c1.01267,-2.806 1.80267,-5.76867 2.37,-8.888c0.06067,-0.33133 0.11867,-0.66467 0.174,-1h-6.048c-1.344,6.496 -3.76,11.904 -7.248,16.224v9.552c0.33533,-0.28733 0.66867,-0.586 1,-0.896c0.86867,-0.812 1.722,-1.69933 2.56,-2.662c0.336,-0.386 0.66933,-0.784 1,-1.194v22.176h6.192zM229.511,297.296h5.601c1.216,-3.264 2.208,-6.48 2.976,-9.648h1.968v33.552h6.24v-8.544h12.72v-6.144h-12.72v-6.288h12.72v-6.144h-12.72v-6.432h14.304v-6.192h-21.072c0.074,-0.354 0.14267,-0.68733 0.206,-1c0.11067,-0.54733 0.206,-1.03267 0.286,-1.456c0.07333,-0.38467 0.13333,-0.718 0.18,-1h-6c-1.27467,6.04133 -3.068,12.14 -5.38,18.296c-0.04933,0.13067 -0.09867,0.26133 -0.148,0.392c-0.07667,0.20267 -0.154,0.40533 -0.232,0.608zM305.904,297.24h-37.808v-19.664h37.808zM269.096,278.576v17.664h35.808v-17.664h-34.808zM298.616,284.528v5.76h-23.232v-5.76zM276.384,285.528v3.76h21.232v-3.76zM264.736,298.264h21.824v23.456h-21.824zM287.44,298.264h21.824v23.456h-21.824zM285.56,299.264h-19.824v21.456h19.824v-20.456zM308.264,299.264h-19.824v21.456h19.824v-20.456zM279.56,305.36v9.264h-7.824v-9.264zM272.736,313.624h5.824v-7.264h-5.824zM302.264,305.36v9.264h-7.824v-9.264zM295.44,313.624h5.824v-7.264h-5.824z">
</path>
</g>
<g >
<path     fill="#681002" fill-opacity="0.02" d="M128.064 475.344Q126.624 475.344 125.904 474.696Q125.184 474.048 125.184 472.584L125.184 456.96L127.248 456.96L127.248 472.056Q127.248 473.04 127.536 473.328Q127.824 473.616 128.448 473.616Q128.664 473.616 128.916 473.592Q129.168 473.568 129.432 473.496L129.432 475.2Q129.144 475.272 128.82 475.308Q128.496 475.344 128.064 475.344ZM131.472 478.224Q133.152 478.224 133.98 477.48Q134.808 476.736 135.288 475.176L130.104 462.24L132.336 462.24L136.296 472.992L136.44 472.992L140.184 462.24L142.272 462.24L137.616 474.768Q137.16 475.992 136.68 476.952Q136.2 477.912 135.516 478.596Q134.832 479.28 133.872 479.64Q132.912 480 131.472 480L131.472 478.224ZM155.592 462.24L155.592 474.288Q155.592 476.976 154.068 478.488Q152.544 480 149.256 480Q148.416 480 147.576 479.904Q146.736 479.808 146.112 479.688L146.112 477.936Q147.576 478.224 149.28 478.224Q151.44 478.224 152.484 477.264Q153.528 476.304 153.528 474.072L153.528 472.776Q153.12 473.928 152.16 474.564Q151.2 475.2 149.328 475.2Q147.696 475.2 146.664 474.72Q145.632 474.24 145.02 473.376Q144.408 472.512 144.18 471.3Q143.952 470.088 143.952 468.6Q143.952 467.256 144.18 466.056Q144.408 464.856 145.02 463.956Q145.632 463.056 146.664 462.528Q147.696 462 149.328 462Q150.312 462 151.02 462.204Q151.728 462.408 152.22 462.756Q152.712 463.104 153.024 463.596Q153.336 464.088 153.528 464.664L153.528 462.24L155.592 462.24ZM149.616 473.472Q150.792 473.472 151.56 473.148Q152.328 472.824 152.784 472.2Q153.24 471.576 153.42 470.664Q153.6 469.752 153.6 468.6Q153.6 467.496 153.42 466.584Q153.24 465.672 152.784 465.048Q152.328 464.424 151.56 464.076Q150.792 463.728 149.616 463.728Q148.44 463.728 147.756 464.136Q147.072 464.544 146.712 465.216Q146.352 465.888 146.256 466.776Q146.16 467.664 146.16 468.6Q146.16 469.608 146.268 470.496Q146.376 471.384 146.736 472.044Q147.096 472.704 147.78 473.088Q148.464 473.472 149.616 473.472ZM158.304 462.24L160.368 462.24L163.104 473.112L163.248 473.112L166.464 462.24L168.912 462.24L172.224 473.112L172.368 473.112L175.104 462.24L177.144 462.24L173.544 475.2L170.976 475.2L167.76 464.568L167.616 464.568L164.376 475.2L161.808 475.2L158.304 462.24ZM179.256 478.224Q180.936 478.224 181.764 477.48Q182.592 476.736 183.072 475.176L177.888 462.24L180.12 462.24L184.08 472.992L184.224 472.992L187.968 462.24L190.056 462.24L185.4 474.768Q184.944 475.992 184.464 476.952Q183.984 477.912 183.3 478.596Q182.616 479.28 181.656 479.64Q180.696 480 179.256 480L179.256 478.224ZM195.48 475.344Q195 475.344 194.46 475.308Q193.92 475.272 193.392 475.224Q192.864 475.176 192.42 475.092Q191.976 475.008 191.712 474.936L191.712 473.16Q192.048 473.256 192.516 473.352Q192.984 473.448 193.488 473.52Q193.992 473.592 194.508 473.628Q195.024 473.664 195.456 473.664Q196.944 473.664 197.7 473.244Q198.456 472.824 198.456 471.672Q198.456 471.096 198.348 470.724Q198.24 470.352 197.928 470.1Q197.616 469.848 197.052 469.656Q196.488 469.464 195.552 469.248Q194.472 469.008 193.776 468.696Q193.08 468.384 192.672 467.952Q192.264 467.52 192.096 466.92Q191.928 466.32 191.928 465.504Q191.928 463.92 193.092 462.96Q194.256 462 196.584 462Q197.52 462 198.444 462.12Q199.368 462.24 199.848 462.432L199.704 464.184Q199.152 463.968 198.336 463.824Q197.52 463.68 196.608 463.68Q195.24 463.68 194.556 464.064Q193.872 464.448 193.872 465.552Q193.872 466.056 193.98 466.368Q194.088 466.68 194.352 466.908Q194.616 467.136 195.096 467.292Q195.576 467.448 196.344 467.616Q197.448 467.88 198.228 468.18Q199.008 468.48 199.488 468.924Q199.968 469.368 200.184 470.016Q200.4 470.664 200.4 471.6Q200.4 473.544 199.14 474.444Q197.88 475.344 195.48 475.344ZM205.416 475.344Q204.576 475.344 204.228 475.08Q203.88 474.816 203.88 473.808Q203.88 472.848 204.228 472.584Q204.576 472.32 205.416 472.32Q206.232 472.32 206.592 472.584Q206.952 472.848 206.952 473.808Q206.952 474.816 206.592 475.08Q206.232 475.344 205.416 475.344ZM222.12 462.24L222.12 474.288Q222.12 476.976 220.596 478.488Q219.072 480 215.784 480Q214.944 480 214.104 479.904Q213.264 479.808 212.64 479.688L212.64 477.936Q214.104 478.224 215.808 478.224Q217.968 478.224 219.012 477.264Q220.056 476.304 220.056 474.072L220.056 472.776Q219.648 473.928 218.688 474.564Q217.728 475.2 215.856 475.2Q214.224 475.2 213.192 474.72Q212.16 474.24 211.548 473.376Q210.936 472.512 210.708 471.3Q210.48 470.088 210.48 468.6Q210.48 467.256 210.708 466.056Q210.936 464.856 211.548 463.956Q212.16 463.056 213.192 462.528Q214.224 462 215.856 462Q216.84 462 217.548 462.204Q218.256 462.408 218.748 462.756Q219.24 463.104 219.552 463.596Q219.864 464.088 220.056 464.664L220.056 462.24L222.12 462.24ZM216.144 473.472Q217.32 473.472 218.088 473.148Q218.856 472.824 219.312 472.2Q219.768 471.576 219.948 470.664Q220.128 469.752 220.128 468.6Q220.128 467.496 219.948 466.584Q219.768 465.672 219.312 465.048Q218.856 464.424 218.088 464.076Q217.32 463.728 216.144 463.728Q214.968 463.728 214.284 464.136Q213.6 464.544 213.24 465.216Q212.88 465.888 212.784 466.776Q212.688 467.664 212.688 468.6Q212.688 469.608 212.796 470.496Q212.904 471.384 213.264 472.044Q213.624 472.704 214.308 473.088Q214.992 473.472 216.144 473.472ZM227.544 459.864Q226.848 459.864 226.572 459.648Q226.296 459.432 226.296 458.64Q226.296 457.824 226.572 457.62Q226.848 457.416 227.544 457.416Q228.192 457.416 228.48 457.62Q228.768 457.824 228.768 458.64Q228.768 459.432 228.48 459.648Q228.192 459.864 227.544 459.864ZM226.488 462.24L228.552 462.24L228.552 475.2L226.488 475.2L226.488 462.24ZM236.952 473.616Q237.384 473.616 237.708 473.58Q238.032 473.544 238.368 473.472L238.368 475.224Q237.984 475.272 237.648 475.308Q237.312 475.344 236.904 475.344Q235.824 475.344 235.092 475.188Q234.36 475.032 233.892 474.576Q233.424 474.12 233.22 473.316Q233.016 472.512 233.016 471.24L233.016 463.968L231.096 463.968L231.096 462.24L233.016 462.24L233.016 459.168L235.08 459.168L235.08 462.24L238.296 462.24L238.296 463.968L235.08 463.968L235.08 471.12Q235.08 471.888 235.152 472.368Q235.224 472.848 235.428 473.124Q235.632 473.4 235.992 473.508Q236.352 473.616 236.952 473.616ZM247.224 462Q248.496 462 249.336 462.312Q250.176 462.624 250.668 463.188Q251.16 463.752 251.364 464.52Q251.568 465.288 251.568 466.224L251.568 475.2L249.504 475.2L249.504 466.992Q249.504 466.248 249.408 465.66Q249.312 465.072 249.036 464.676Q248.76 464.28 248.268 464.064Q247.776 463.848 247.008 463.848Q246.384 463.848 245.796 463.932Q245.208 464.016 244.692 464.292Q244.176 464.568 243.756 465.072Q243.336 465.576 243.072 466.44L243.072 475.2L241.008 475.2L241.008 456.96L243.072 456.96L243.072 464.088Q243.36 463.464 243.828 463.056Q244.296 462.648 244.848 462.42Q245.4 462.192 246.012 462.096Q246.624 462 247.224 462ZM266.184 462.24L266.184 475.2L264.432 475.2L264.168 473.328Q263.88 473.976 263.424 474.384Q262.968 474.792 262.428 475.02Q261.888 475.248 261.288 475.344Q260.688 475.44 260.088 475.44Q258.816 475.44 257.976 475.128Q257.136 474.816 256.644 474.264Q256.152 473.712 255.948 472.932Q255.744 472.152 255.744 471.216L255.744 462.24L257.808 462.24L257.808 470.448Q257.808 471.192 257.904 471.78Q258 472.368 258.276 472.776Q258.552 473.184 259.044 473.4Q259.536 473.616 260.304 473.616Q260.904 473.616 261.48 473.532Q262.056 473.448 262.548 473.172Q263.04 472.896 263.436 472.392Q263.832 471.888 264.12 471.048L264.12 462.24L266.184 462.24ZM276.816 462Q278.448 462 279.492 462.492Q280.536 462.984 281.124 463.872Q281.712 464.76 281.94 465.996Q282.168 467.232 282.168 468.72Q282.168 470.064 281.94 471.276Q281.712 472.488 281.124 473.412Q280.536 474.336 279.492 474.888Q278.448 475.44 276.816 475.44Q274.92 475.44 273.972 474.768Q273.024 474.096 272.616 472.944L272.352 475.2L270.552 475.2L270.552 456.96L272.616 456.96L272.616 464.568Q273.024 463.416 273.984 462.708Q274.944 462 276.816 462ZM276.552 473.688Q277.704 473.688 278.388 473.268Q279.072 472.848 279.432 472.152Q279.792 471.456 279.9 470.556Q280.008 469.656 280.008 468.72Q280.008 467.712 279.888 466.8Q279.768 465.888 279.408 465.204Q279.048 464.52 278.364 464.124Q277.68 463.728 276.552 463.728Q275.376 463.728 274.608 464.076Q273.84 464.424 273.372 465.072Q272.904 465.72 272.712 466.644Q272.52 467.568 272.52 468.72Q272.52 469.848 272.712 470.76Q272.904 471.672 273.372 472.32Q273.84 472.968 274.608 473.328Q275.376 473.688 276.552 473.688ZM287.232 475.344Q286.392 475.344 286.044 475.08Q285.696 474.816 285.696 473.808Q285.696 472.848 286.044 472.584Q286.392 472.32 287.232 472.32Q288.048 472.32 288.408 472.584Q288.768 472.848 288.768 473.808Q288.768 474.816 288.408 475.08Q288.048 475.344 287.232 475.344ZM294.096 459.864Q293.4 459.864 293.124 459.648Q292.848 459.432 292.848 458.64Q292.848 457.824 293.124 457.62Q293.4 457.416 294.096 457.416Q294.744 457.416 295.032 457.62Q295.32 457.824 295.32 458.64Q295.32 459.432 295.032 459.648Q294.744 459.864 294.096 459.864ZM293.04 462.24L295.104 462.24L295.104 475.2L293.04 475.2L293.04 462.24ZM304.704 475.44Q303.264 475.44 302.148 475.116Q301.032 474.792 300.264 474.012Q299.496 473.232 299.1 471.948Q298.704 470.664 298.704 468.72Q298.704 466.776 299.1 465.492Q299.496 464.208 300.264 463.428Q301.032 462.648 302.148 462.324Q303.264 462 304.704 462Q306.144 462 307.26 462.324Q308.376 462.648 309.132 463.428Q309.888 464.208 310.284 465.492Q310.68 466.776 310.68 468.72Q310.68 470.664 310.284 471.948Q309.888 473.232 309.132 474.012Q308.376 474.792 307.26 475.116Q306.144 475.44 304.704 475.44ZM304.704 473.688Q305.808 473.688 306.54 473.448Q307.272 473.208 307.704 472.632Q308.136 472.056 308.316 471.096Q308.496 470.136 308.496 468.72Q308.496 467.304 308.304 466.344Q308.112 465.384 307.668 464.808Q307.224 464.232 306.492 463.98Q305.76 463.728 304.704 463.728Q303.624 463.728 302.892 463.98Q302.16 464.232 301.716 464.808Q301.272 465.384 301.092 466.344Q300.912 467.304 300.912 468.72Q300.912 470.136 301.104 471.096Q301.296 472.056 301.752 472.632Q302.208 473.208 302.928 473.448Q303.648 473.688 304.704 473.688Z">
</path>
<path     fill="#FFFFFF" fill-opacity="0.8" d="M128.064 475.344Q126.624 475.344 125.904 474.696Q125.184 474.048 125.184 472.584L125.184 456.96L127.248 456.96L127.248 472.056Q127.248 473.04 127.536 473.328Q127.824 473.616 128.448 473.616Q128.664 473.616 128.916 473.592Q129.168 473.568 129.432 473.496L129.432 475.2Q129.144 475.272 128.82 475.308Q128.496 475.344 128.064 475.344ZM131.472 478.224Q133.152 478.224 133.98 477.48Q134.808 476.736 135.288 475.176L130.104 462.24L132.336 462.24L136.296 472.992L136.44 472.992L140.184 462.24L142.272 462.24L137.616 474.768Q137.16 475.992 136.68 476.952Q136.2 477.912 135.516 478.596Q134.832 479.28 133.872 479.64Q132.912 480 131.472 480L131.472 478.224ZM155.592 462.24L155.592 474.288Q155.592 476.976 154.068 478.488Q152.544 480 149.256 480Q148.416 480 147.576 479.904Q146.736 479.808 146.112 479.688L146.112 477.936Q147.576 478.224 149.28 478.224Q151.44 478.224 152.484 477.264Q153.528 476.304 153.528 474.072L153.528 472.776Q153.12 473.928 152.16 474.564Q151.2 475.2 149.328 475.2Q147.696 475.2 146.664 474.72Q145.632 474.24 145.02 473.376Q144.408 472.512 144.18 471.3Q143.952 470.088 143.952 468.6Q143.952 467.256 144.18 466.056Q144.408 464.856 145.02 463.956Q145.632 463.056 146.664 462.528Q147.696 462 149.328 462Q150.312 462 151.02 462.204Q151.728 462.408 152.22 462.756Q152.712 463.104 153.024 463.596Q153.336 464.088 153.528 464.664L153.528 462.24L155.592 462.24ZM149.616 473.472Q150.792 473.472 151.56 473.148Q152.328 472.824 152.784 472.2Q153.24 471.576 153.42 470.664Q153.6 469.752 153.6 468.6Q153.6 467.496 153.42 466.584Q153.24 465.672 152.784 465.048Q152.328 464.424 151.56 464.076Q150.792 463.728 149.616 463.728Q148.44 463.728 147.756 464.136Q147.072 464.544 146.712 465.216Q146.352 465.888 146.256 466.776Q146.16 467.664 146.16 468.6Q146.16 469.608 146.268 470.496Q146.376 471.384 146.736 472.044Q147.096 472.704 147.78 473.088Q148.464 473.472 149.616 473.472ZM158.304 462.24L160.368 462.24L163.104 473.112L163.248 473.112L166.464 462.24L168.912 462.24L172.224 473.112L172.368 473.112L175.104 462.24L177.144 462.24L173.544 475.2L170.976 475.2L167.76 464.568L167.616 464.568L164.376 475.2L161.808 475.2L158.304 462.24ZM179.256 478.224Q180.936 478.224 181.764 477.48Q182.592 476.736 183.072 475.176L177.888 462.24L180.12 462.24L184.08 472.992L184.224 472.992L187.968 462.24L190.056 462.24L185.4 474.768Q184.944 475.992 184.464 476.952Q183.984 477.912 183.3 478.596Q182.616 479.28 181.656 479.64Q180.696 480 179.256 480L179.256 478.224ZM195.48 475.344Q195 475.344 194.46 475.308Q193.92 475.272 193.392 475.224Q192.864 475.176 192.42 475.092Q191.976 475.008 191.712 474.936L191.712 473.16Q192.048 473.256 192.516 473.352Q192.984 473.448 193.488 473.52Q193.992 473.592 194.508 473.628Q195.024 473.664 195.456 473.664Q196.944 473.664 197.7 473.244Q198.456 472.824 198.456 471.672Q198.456 471.096 198.348 470.724Q198.24 470.352 197.928 470.1Q197.616 469.848 197.052 469.656Q196.488 469.464 195.552 469.248Q194.472 469.008 193.776 468.696Q193.08 468.384 192.672 467.952Q192.264 467.52 192.096 466.92Q191.928 466.32 191.928 465.504Q191.928 463.92 193.092 462.96Q194.256 462 196.584 462Q197.52 462 198.444 462.12Q199.368 462.24 199.848 462.432L199.704 464.184Q199.152 463.968 198.336 463.824Q197.52 463.68 196.608 463.68Q195.24 463.68 194.556 464.064Q193.872 464.448 193.872 465.552Q193.872 466.056 193.98 466.368Q194.088 466.68 194.352 466.908Q194.616 467.136 195.096 467.292Q195.576 467.448 196.344 467.616Q197.448 467.88 198.228 468.18Q199.008 468.48 199.488 468.924Q199.968 469.368 200.184 470.016Q200.4 470.664 200.4 471.6Q200.4 473.544 199.14 474.444Q197.88 475.344 195.48 475.344ZM205.416 475.344Q204.576 475.344 204.228 475.08Q203.88 474.816 203.88 473.808Q203.88 472.848 204.228 472.584Q204.576 472.32 205.416 472.32Q206.232 472.32 206.592 472.584Q206.952 472.848 206.952 473.808Q206.952 474.816 206.592 475.08Q206.232 475.344 205.416 475.344ZM222.12 462.24L222.12 474.288Q222.12 476.976 220.596 478.488Q219.072 480 215.784 480Q214.944 480 214.104 479.904Q213.264 479.808 212.64 479.688L212.64 477.936Q214.104 478.224 215.808 478.224Q217.968 478.224 219.012 477.264Q220.056 476.304 220.056 474.072L220.056 472.776Q219.648 473.928 218.688 474.564Q217.728 475.2 215.856 475.2Q214.224 475.2 213.192 474.72Q212.16 474.24 211.548 473.376Q210.936 472.512 210.708 471.3Q210.48 470.088 210.48 468.6Q210.48 467.256 210.708 466.056Q210.936 464.856 211.548 463.956Q212.16 463.056 213.192 462.528Q214.224 462 215.856 462Q216.84 462 217.548 462.204Q218.256 462.408 218.748 462.756Q219.24 463.104 219.552 463.596Q219.864 464.088 220.056 464.664L220.056 462.24L222.12 462.24ZM216.144 473.472Q217.32 473.472 218.088 473.148Q218.856 472.824 219.312 472.2Q219.768 471.576 219.948 470.664Q220.128 469.752 220.128 468.6Q220.128 467.496 219.948 466.584Q219.768 465.672 219.312 465.048Q218.856 464.424 218.088 464.076Q217.32 463.728 216.144 463.728Q214.968 463.728 214.284 464.136Q213.6 464.544 213.24 465.216Q212.88 465.888 212.784 466.776Q212.688 467.664 212.688 468.6Q212.688 469.608 212.796 470.496Q212.904 471.384 213.264 472.044Q213.624 472.704 214.308 473.088Q214.992 473.472 216.144 473.472ZM227.544 459.864Q226.848 459.864 226.572 459.648Q226.296 459.432 226.296 458.64Q226.296 457.824 226.572 457.62Q226.848 457.416 227.544 457.416Q228.192 457.416 228.48 457.62Q228.768 457.824 228.768 458.64Q228.768 459.432 228.48 459.648Q228.192 459.864 227.544 459.864ZM226.488 462.24L228.552 462.24L228.552 475.2L226.488 475.2L226.488 462.24ZM236.952 473.616Q237.384 473.616 237.708 473.58Q238.032 473.544 238.368 473.472L238.368 475.224Q237.984 475.272 237.648 475.308Q237.312 475.344 236.904 475.344Q235.824 475.344 235.092 475.188Q234.36 475.032 233.892 474.576Q233.424 474.12 233.22 473.316Q233.016 472.512 233.016 471.24L233.016 463.968L231.096 463.968L231.096 462.24L233.016 462.24L233.016 459.168L235.08 459.168L235.08 462.24L238.296 462.24L238.296 463.968L235.08 463.968L235.08 471.12Q235.08 471.888 235.152 472.368Q235.224 472.848 235.428 473.124Q235.632 473.4 235.992 473.508Q236.352 473.616 236.952 473.616ZM247.224 462Q248.496 462 249.336 462.312Q250.176 462.624 250.668 463.188Q251.16 463.752 251.364 464.52Q251.568 465.288 251.568 466.224L251.568 475.2L249.504 475.2L249.504 466.992Q249.504 466.248 249.408 465.66Q249.312 465.072 249.036 464.676Q248.76 464.28 248.268 464.064Q247.776 463.848 247.008 463.848Q246.384 463.848 245.796 463.932Q245.208 464.016 244.692 464.292Q244.176 464.568 243.756 465.072Q243.336 465.576 243.072 466.44L243.072 475.2L241.008 475.2L241.008 456.96L243.072 456.96L243.072 464.088Q243.36 463.464 243.828 463.056Q244.296 462.648 244.848 462.42Q245.4 462.192 246.012 462.096Q246.624 462 247.224 462ZM266.184 462.24L266.184 475.2L264.432 475.2L264.168 473.328Q263.88 473.976 263.424 474.384Q262.968 474.792 262.428 475.02Q261.888 475.248 261.288 475.344Q260.688 475.44 260.088 475.44Q258.816 475.44 257.976 475.128Q257.136 474.816 256.644 474.264Q256.152 473.712 255.948 472.932Q255.744 472.152 255.744 471.216L255.744 462.24L257.808 462.24L257.808 470.448Q257.808 471.192 257.904 471.78Q258 472.368 258.276 472.776Q258.552 473.184 259.044 473.4Q259.536 473.616 260.304 473.616Q260.904 473.616 261.48 473.532Q262.056 473.448 262.548 473.172Q263.04 472.896 263.436 472.392Q263.832 471.888 264.12 471.048L264.12 462.24L266.184 462.24ZM276.816 462Q278.448 462 279.492 462.492Q280.536 462.984 281.124 463.872Q281.712 464.76 281.94 465.996Q282.168 467.232 282.168 468.72Q282.168 470.064 281.94 471.276Q281.712 472.488 281.124 473.412Q280.536 474.336 279.492 474.888Q278.448 475.44 276.816 475.44Q274.92 475.44 273.972 474.768Q273.024 474.096 272.616 472.944L272.352 475.2L270.552 475.2L270.552 456.96L272.616 456.96L272.616 464.568Q273.024 463.416 273.984 462.708Q274.944 462 276.816 462ZM276.552 473.688Q277.704 473.688 278.388 473.268Q279.072 472.848 279.432 472.152Q279.792 471.456 279.9 470.556Q280.008 469.656 280.008 468.72Q280.008 467.712 279.888 466.8Q279.768 465.888 279.408 465.204Q279.048 464.52 278.364 464.124Q277.68 463.728 276.552 463.728Q275.376 463.728 274.608 464.076Q273.84 464.424 273.372 465.072Q272.904 465.72 272.712 466.644Q272.52 467.568 272.52 468.72Q272.52 469.848 272.712 470.76Q272.904 471.672 273.372 472.32Q273.84 472.968 274.608 473.328Q275.376 473.688 276.552 473.688ZM287.232 475.344Q286.392 475.344 286.044 475.08Q285.696 474.816 285.696 473.808Q285.696 472.848 286.044 472.584Q286.392 472.32 287.232 472.32Q288.048 472.32 288.408 472.584Q288.768 472.848 288.768 473.808Q288.768 474.816 288.408 475.08Q288.048 475.344 287.232 475.344ZM294.096 459.864Q293.4 459.864 293.124 459.648Q292.848 459.432 292.848 458.64Q292.848 457.824 293.124 457.62Q293.4 457.416 294.096 457.416Q294.744 457.416 295.032 457.62Q295.32 457.824 295.32 458.64Q295.32 459.432 295.032 459.648Q294.744 459.864 294.096 459.864ZM293.04 462.24L295.104 462.24L295.104 475.2L293.04 475.2L293.04 462.24ZM304.704 475.44Q303.264 475.44 302.148 475.116Q301.032 474.792 300.264 474.012Q299.496 473.232 299.1 471.948Q298.704 470.664 298.704 468.72Q298.704 466.776 299.1 465.492Q299.496 464.208 300.264 463.428Q301.032 462.648 302.148 462.324Q303.264 462 304.704 462Q306.144 462 307.26 462.324Q308.376 462.648 309.132 463.428Q309.888 464.208 310.284 465.492Q310.68 466.776 310.68 468.72Q310.68 470.664 310.284 471.948Q309.888 473.232 309.132 474.012Q308.376 474.792 307.26 475.116Q306.144 475.44 304.704 475.44ZM304.704 473.688Q305.808 473.688 306.54 473.448Q307.272 473.208 307.704 472.632Q308.136 472.056 308.316 471.096Q308.496 470.136 308.496 468.72Q308.496 467.304 308.304 466.344Q308.112 465.384 307.668 464.808Q307.224 464.232 306.492 463.98Q305.76 463.728 304.704 463.728Q303.624 463.728 302.892 463.98Q302.16 464.232 301.716 464.808Q301.272 465.384 301.092 466.344Q300.912 467.304 300.912 468.72Q300.912 470.136 301.104 471.096Q301.296 472.056 301.752 472.632Q302.208 473.208 302.928 473.448Q303.648 473.688 304.704 473.688Z">
</path>
<path fill-rule="evenodd"  fill="rgba(0, 0, 0, 1)"  d="M124.184,472.584v-16.624h4.064v16.096c0,0.23867 0.014,0.42667 0.042,0.564l0.158,-0.004c0.11267,0 0.237,-0.00667 0.373,-0.02c0.11133,-0.01 0.22733,-0.03167 0.348,-0.065l1.263,-0.344v3.794l-0.757,0.189c-0.236,0.05867 -0.48433,0.10267 -0.745,0.132c-0.25267,0.028 -0.54133,0.042 -0.866,0.042c-1.216,0 -2.159,-0.30167 -2.829,-0.905c-0.70067,-0.63067 -1.051,-1.58233 -1.051,-2.855zM251.422,462.531c0.43,0.49267 0.73267,1.07 0.908,1.732c0.15867,0.596 0.238,1.24967 0.238,1.961v9.976h-4.064v-9.208c0,-0.442 -0.02767,-0.83233 -0.083,-1.171c-0.03933,-0.24267 -0.10767,-0.43367 -0.205,-0.573c-0.07733,-0.11 -0.194,-0.19933 -0.35,-0.268c-0.2,-0.088 -0.486,-0.132 -0.858,-0.132c-0.36867,0 -0.72567,0.02467 -1.071,0.074c-0.27533,0.03933 -0.533,0.12333 -0.773,0.252c-0.23,0.12267 -0.44333,0.302 -0.64,0.538c-0.17333,0.20867 -0.324,0.50333 -0.452,0.884v9.604h-4.064v-20.24h4.064v5.721c0.12867,-0.068 0.26,-0.12967 0.394,-0.185c0.44133,-0.18267 0.905,-0.312 1.391,-0.388c0.45933,-0.072 0.915,-0.108 1.367,-0.108c0.968,0 1.788,0.125 2.46,0.375c0.71867,0.26667 1.298,0.652 1.738,1.156zM243.072,466.44c0.176,-0.576 0.404,-1.032 0.684,-1.368c0.28,-0.336 0.592,-0.596 0.936,-0.78c0.344,-0.184 0.712,-0.304 1.104,-0.36c0.392,-0.056 0.796,-0.084 1.212,-0.084c0.512,0 0.932,0.072 1.26,0.216c0.328,0.144 0.584,0.348 0.768,0.612c0.184,0.264 0.308,0.592 0.372,0.984c0.064,0.392 0.096,0.836 0.096,1.332v8.208h2.064v-8.976c0,-0.624 -0.068,-1.192 -0.204,-1.704c-0.136,-0.512 -0.368,-0.956 -0.696,-1.332c-0.328,-0.376 -0.772,-0.668 -1.332,-0.876c-0.56,-0.208 -1.264,-0.312 -2.112,-0.312c-0.4,0 -0.804,0.032 -1.212,0.096c-0.408,0.064 -0.796,0.172 -1.164,0.324c-0.274,0.11333 -0.53267,0.26 -0.776,0.44c-0.08333,0.06133 -0.16467,0.12667 -0.244,0.196c-0.312,0.272 -0.564,0.616 -0.756,1.032v-7.128h-2.064v18.24h2.064zM281.958,463.32c0.46667,0.70533 0.78833,1.537 0.965,2.495c0.16333,0.884 0.245,1.85233 0.245,2.905c0,0.958 -0.08167,1.87167 -0.245,2.741c-0.176,0.934 -0.49433,1.76333 -0.955,2.488c-0.48733,0.76467 -1.157,1.37233 -2.009,1.823c-0.842,0.44533 -1.88967,0.668 -3.143,0.668c-1.476,0 -2.61667,-0.28533 -3.422,-0.856c-0.02467,-0.01733 -0.04933,-0.035 -0.074,-0.053l-0.078,0.669h-3.69v-20.24h4.064v5.79c0.79667,-0.5 1.86333,-0.75 3.2,-0.75c1.23733,0 2.27133,0.19567 3.102,0.587c0.86467,0.408 1.54467,0.98567 2.04,1.733zM272.416,474.653l0.196,-1.678l0.004,-0.031c0.008,0.02267 0.01633,0.04533 0.025,0.068c0.19067,0.51267 0.464,0.95233 0.82,1.319c0.15467,0.15933 0.325,0.305 0.511,0.437c0.632,0.448 1.58,0.672 2.844,0.672c1.088,0 1.98,-0.184 2.676,-0.552c0.696,-0.368 1.24,-0.86 1.632,-1.476c0.392,-0.616 0.664,-1.328 0.816,-2.136c0.152,-0.808 0.228,-1.66 0.228,-2.556c0,-0.992 -0.076,-1.9 -0.228,-2.724c-0.152,-0.824 -0.424,-1.532 -0.816,-2.124c-0.392,-0.592 -0.936,-1.052 -1.632,-1.38c-0.696,-0.328 -1.588,-0.492 -2.676,-0.492c-1.248,0 -2.192,0.236 -2.832,0.708c-0.13,0.096 -0.25267,0.19833 -0.368,0.307c-0.372,0.35 -0.664,0.764 -0.876,1.242c-0.04467,0.10067 -0.086,0.20433 -0.124,0.311v-7.608h-2.064v18.24h1.8zM273.599,464.795c0.276,-0.3 0.61233,-0.53967 1.009,-0.719c0.512,-0.232 1.16,-0.348 1.944,-0.348c0.752,0 1.356,0.132 1.812,0.396c0.456,0.264 0.804,0.624 1.044,1.08c0.24,0.456 0.4,0.988 0.48,1.596c0.08,0.608 0.12,1.248 0.12,1.92c0,0.624 -0.036,1.236 -0.108,1.836c-0.072,0.6 -0.228,1.132 -0.468,1.596c-0.24,0.464 -0.588,0.836 -1.044,1.116c-0.456,0.28 -1.068,0.42 -1.836,0.42c-0.784,0 -1.432,-0.12 -1.944,-0.36c-0.512,-0.24 -0.924,-0.576 -1.236,-1.008c-0.312,-0.432 -0.532,-0.952 -0.66,-1.56c-0.128,-0.608 -0.192,-1.288 -0.192,-2.04c0,-0.768 0.064,-1.46 0.192,-2.076c0.128,-0.616 0.348,-1.14 0.66,-1.572c0.04467,-0.06133 0.091,-0.12067 0.139,-0.178c0.02867,-0.034 0.058,-0.067 0.088,-0.099zM225.296,458.64c0,-0.88 0.22733,-1.488 0.682,-1.824c0.36067,-0.26667 0.88267,-0.4 1.566,-0.4c0.644,0 1.14867,0.12933 1.514,0.388c0.47333,0.33533 0.71,0.94733 0.71,1.836c0,0.86133 -0.22933,1.464 -0.688,1.808c-0.37,0.27733 -0.882,0.416 -1.536,0.416c-0.694,0 -1.22333,-0.14267 -1.588,-0.428c-0.44,-0.34467 -0.66,-0.94333 -0.66,-1.796zM291.848,458.64c0,-0.88 0.22733,-1.488 0.682,-1.824c0.36067,-0.26667 0.88267,-0.4 1.566,-0.4c0.644,0 1.14867,0.12933 1.514,0.388c0.47333,0.33533 0.71,0.94733 0.71,1.836c0,0.86133 -0.22933,1.464 -0.688,1.808c-0.37,0.27733 -0.882,0.416 -1.536,0.416c-0.694,0 -1.22333,-0.14267 -1.588,-0.428c-0.44,-0.34467 -0.66,-0.94333 -0.66,-1.796zM127.248,456.96h-2.064v15.624c0,0.976 0.24,1.68 0.72,2.112c0.48,0.432 1.2,0.648 2.16,0.648c0.288,0 0.54,-0.012 0.756,-0.036c0.216,-0.024 0.42,-0.06 0.612,-0.108v-1.704c-0.176,0.048 -0.348,0.08 -0.516,0.096c-0.168,0.016 -0.324,0.024 -0.468,0.024h-0.016c-0.408,-0.00267 -0.70667,-0.09867 -0.896,-0.288c-0.192,-0.192 -0.288,-0.616 -0.288,-1.272v-14.096zM226.572,459.648c0.184,0.144 0.508,0.216 0.972,0.216c0.432,0 0.744,-0.072 0.936,-0.216c0.192,-0.144 0.288,-0.48 0.288,-1.008c0,-0.544 -0.096,-0.884 -0.288,-1.02c-0.192,-0.136 -0.504,-0.204 -0.936,-0.204c-0.464,0 -0.788,0.068 -0.972,0.204c-0.184,0.136 -0.276,0.476 -0.276,1.02c0,0.528 0.092,0.864 0.276,1.008zM293.124,459.648c0.184,0.144 0.508,0.216 0.972,0.216c0.432,0 0.744,-0.072 0.936,-0.216c0.192,-0.144 0.288,-0.48 0.288,-1.008c0,-0.544 -0.096,-0.884 -0.288,-1.02c-0.192,-0.136 -0.504,-0.204 -0.936,-0.204c-0.464,0 -0.788,0.068 -0.972,0.204c-0.184,0.136 -0.276,0.476 -0.276,1.02c0,0.528 0.092,0.864 0.276,1.008zM238.158,472.494l1.21,-0.259v3.872l-0.876,0.109c-0.262,0.03267 -0.50767,0.06133 -0.737,0.086c-0.26,0.028 -0.54367,0.042 -0.851,0.042c-0.79,0 -1.46333,-0.05933 -2.02,-0.178c-0.67667,-0.144 -1.24,-0.43533 -1.69,-0.874c-0.44667,-0.43533 -0.761,-1.012 -0.943,-1.73c-0.15667,-0.61667 -0.235,-1.39067 -0.235,-2.322v-6.272h-1.92v-3.728h1.92v-3.072h4.064v3.072h3.216v3.728h-3.216v6.152c0,0.462 0.02033,0.82867 0.061,1.1c0.02333,0.156 0.05367,0.25933 0.091,0.31c0.004,0.00533 0.01967,0.012 0.047,0.02c0.14667,0.044 0.371,0.066 0.673,0.066c0.25133,0 0.46667,-0.01 0.646,-0.03c0.18267,-0.02 0.36933,-0.05067 0.56,-0.092zM232.016,463.968h1v7.272c0,0.848 0.068,1.54 0.204,2.076c0.136,0.536 0.36,0.956 0.672,1.26c0.312,0.304 0.712,0.508 1.2,0.612c0.488,0.104 1.092,0.156 1.812,0.156c0.272,0 0.52,-0.012 0.744,-0.036c0.224,-0.024 0.464,-0.052 0.72,-0.084v-1.752c-0.224,0.048 -0.444,0.084 -0.66,0.108c-0.10467,0.01133 -0.218,0.02 -0.34,0.026c-0.12933,0.00667 -0.268,0.01 -0.416,0.01c-0.4,0 -0.72,-0.036 -0.96,-0.108c-0.24,-0.072 -0.428,-0.2 -0.564,-0.384c-0.136,-0.184 -0.228,-0.436 -0.276,-0.756c-0.048,-0.32 -0.072,-0.736 -0.072,-1.248v-7.152h3.216v-1.728h-3.216v-3.072h-2.064v3.072h-1.92v1.728zM154.772,479.198c-1.21067,1.20133 -3.04933,1.802 -5.516,1.802c-0.598,0 -1.196,-0.034 -1.794,-0.102c-0.58467,-0.06733 -1.09767,-0.14333 -1.539,-0.228l-0.811,-0.156v-3.794l1.193,0.235c0.912,0.17933 1.90367,0.269 2.975,0.269c1.18,0 2.02233,-0.232 2.527,-0.696c0.234,-0.21533 0.411,-0.51967 0.531,-0.913c-0.76933,0.39 -1.77267,0.585 -3.01,0.585c-1.23533,0 -2.264,-0.191 -3.086,-0.573c-0.84867,-0.39467 -1.528,-0.95233 -2.038,-1.673c-0.492,-0.69467 -0.82767,-1.51767 -1.007,-2.469c-0.16333,-0.86933 -0.245,-1.831 -0.245,-2.885c0,-0.95867 0.082,-1.869 0.246,-2.731c0.17733,-0.936 0.509,-1.761 0.995,-2.475c0.504,-0.74133 1.176,-1.32667 2.016,-1.756c0.83067,-0.42533 1.87033,-0.638 3.119,-0.638c0.75,0 1.40633,0.081 1.969,0.243c0.46067,0.13267 0.871,0.30633 1.231,0.521v-0.524h4.064v13.048c0,2.07 -0.60667,3.70667 -1.82,4.91zM153.456,472.964c0.02533,-0.06133 0.04933,-0.124 0.072,-0.188v1.296c0,0.23 -0.00833,0.44967 -0.025,0.659c-0.09067,1.14733 -0.43033,1.99167 -1.019,2.533c-0.696,0.64 -1.764,0.96 -3.204,0.96c-0.758,0 -1.48067,-0.04267 -2.168,-0.128c-0.342,-0.04267 -0.67533,-0.096 -1,-0.16v1.752c0.416,0.08 0.904,0.152 1.464,0.216c0.56,0.064 1.12,0.096 1.68,0.096c2.192,0 3.796,-0.504 4.812,-1.512c1.016,-1.008 1.524,-2.408 1.524,-4.2v-12.048h-2.064v2.424c-0.06333,-0.19 -0.13667,-0.37333 -0.22,-0.55c-0.08467,-0.18 -0.17933,-0.35267 -0.284,-0.518c-0.13867,-0.21867 -0.304,-0.416 -0.496,-0.592c-0.096,-0.088 -0.19867,-0.17067 -0.308,-0.248c-0.328,-0.232 -0.728,-0.416 -1.2,-0.552c-0.472,-0.136 -1.036,-0.204 -1.692,-0.204c-1.088,0 -1.976,0.176 -2.664,0.528c-0.688,0.352 -1.236,0.828 -1.644,1.428c-0.408,0.6 -0.688,1.3 -0.84,2.1c-0.152,0.8 -0.228,1.648 -0.228,2.544c0,0.992 0.076,1.892 0.228,2.7c0.152,0.808 0.432,1.5 0.84,2.076c0.408,0.576 0.956,1.024 1.644,1.344c0.688,0.32 1.576,0.48 2.664,0.48c1.248,0 2.192,-0.212 2.832,-0.636c0.12933,-0.08533 0.251,-0.178 0.365,-0.278c0.40467,-0.35267 0.715,-0.79333 0.931,-1.322zM152.716,464.958c0.02333,0.02933 0.046,0.05933 0.068,0.09c0.304,0.416 0.516,0.928 0.636,1.536c0.12,0.608 0.18,1.28 0.18,2.016c0,0.768 -0.06,1.456 -0.18,2.064c-0.12,0.608 -0.332,1.12 -0.636,1.536c-0.304,0.416 -0.712,0.732 -1.224,0.948c-0.512,0.216 -1.16,0.324 -1.944,0.324c-0.768,0 -1.38,-0.128 -1.836,-0.384c-0.456,-0.256 -0.804,-0.604 -1.044,-1.044c-0.24,-0.44 -0.396,-0.956 -0.468,-1.548c-0.072,-0.592 -0.108,-1.224 -0.108,-1.896c0,-0.624 0.032,-1.232 0.096,-1.824c0.064,-0.592 0.216,-1.112 0.456,-1.56c0.24,-0.448 0.588,-0.808 1.044,-1.08c0.456,-0.272 1.076,-0.408 1.86,-0.408c0.784,0 1.432,0.116 1.944,0.348c0.352,0.15933 0.65467,0.362 0.908,0.608c0.08867,0.086 0.17133,0.17733 0.248,0.274zM193.301,476.22c-0.384,-0.03467 -0.73967,-0.083 -1.067,-0.145c-0.322,-0.06133 -0.58367,-0.11933 -0.785,-0.174l-0.737,-0.201v-3.866l1.275,0.364c0.19933,0.05733 0.44267,0.11533 0.73,0.174c0.292,0.06 0.596,0.11267 0.912,0.158c0.31267,0.04467 0.629,0.078 0.949,0.1c0.32067,0.02267 0.61333,0.034 0.878,0.034c0.81933,0 1.40533,-0.098 1.758,-0.294c0.16133,-0.08933 0.242,-0.322 0.242,-0.698c0,-0.28933 -0.02267,-0.51233 -0.068,-0.669c-0.014,-0.04667 -0.04333,-0.08833 -0.088,-0.125c-0.116,-0.094 -0.306,-0.18567 -0.57,-0.275c-0.344,-0.11733 -0.81167,-0.24433 -1.403,-0.381c-0.78067,-0.17333 -1.434,-0.37767 -1.96,-0.613c-0.58467,-0.26267 -1.05867,-0.586 -1.422,-0.97c-0.38467,-0.408 -0.65533,-0.891 -0.812,-1.449c-0.13667,-0.48867 -0.205,-1.05067 -0.205,-1.686c0,-1.37 0.50933,-2.475 1.528,-3.315c0.96067,-0.79267 2.33667,-1.189 4.128,-1.189c0.66733,0 1.33033,0.04267 1.989,0.128c0.69933,0.09133 1.248,0.21667 1.646,0.376l0.686,0.274l-0.314,3.827l-1.251,-0.49c-0.30667,-0.12 -0.69933,-0.222 -1.178,-0.306c-0.48667,-0.086 -1.00467,-0.129 -1.554,-0.129c-0.73733,0 -1.258,0.08533 -1.562,0.256c-0.116,0.06467 -0.174,0.27 -0.174,0.616c0,0.224 0.01767,0.387 0.053,0.489c0.01333,0.03867 0.04033,0.07533 0.081,0.11c0.074,0.064 0.207,0.12733 0.399,0.19c0.28867,0.094 0.673,0.19333 1.153,0.298c0.79133,0.18933 1.46767,0.392 2.029,0.608c0.63933,0.246 1.166,0.56033 1.58,0.943c0.446,0.412 0.768,0.91533 0.966,1.51c0.178,0.53467 0.267,1.168 0.267,1.9c0,1.63933 -0.55967,2.85867 -1.679,3.658c-1.014,0.724 -2.42767,1.086 -4.241,1.086c-0.342,0 -0.70433,-0.01267 -1.087,-0.038c-0.368,-0.02467 -0.732,-0.05333 -1.092,-0.086zM221.3,479.198c-1.21067,1.20133 -3.04933,1.802 -5.516,1.802c-0.598,0 -1.196,-0.034 -1.794,-0.102c-0.58467,-0.06733 -1.09767,-0.14333 -1.539,-0.228l-0.811,-0.156v-3.794l1.193,0.235c0.912,0.17933 1.90367,0.269 2.975,0.269c1.18,0 2.02233,-0.232 2.527,-0.696c0.234,-0.21533 0.411,-0.51967 0.531,-0.913c-0.76933,0.39 -1.77267,0.585 -3.01,0.585c-1.23533,0 -2.264,-0.191 -3.086,-0.573c-0.84867,-0.39467 -1.528,-0.95233 -2.038,-1.673c-0.492,-0.69467 -0.82767,-1.51767 -1.007,-2.469c-0.16333,-0.86933 -0.245,-1.831 -0.245,-2.885c0,-0.95867 0.082,-1.869 0.246,-2.731c0.17733,-0.936 0.509,-1.761 0.995,-2.475c0.504,-0.74133 1.176,-1.32667 2.016,-1.756c0.83067,-0.42533 1.87033,-0.638 3.119,-0.638c0.75,0 1.40633,0.081 1.969,0.243c0.46067,0.13267 0.871,0.30633 1.231,0.521v-0.524h4.064v13.048c0,2.07 -0.60667,3.70667 -1.82,4.91zM219.984,472.964c0.02533,-0.06133 0.04933,-0.124 0.072,-0.188v1.296c0,0.23 -0.00833,0.44967 -0.025,0.659c-0.09067,1.14733 -0.43033,1.99167 -1.019,2.533c-0.696,0.64 -1.764,0.96 -3.204,0.96c-0.758,0 -1.48067,-0.04267 -2.168,-0.128c-0.342,-0.04267 -0.67533,-0.096 -1,-0.16v1.752c0.416,0.08 0.904,0.152 1.464,0.216c0.56,0.064 1.12,0.096 1.68,0.096c2.192,0 3.796,-0.504 4.812,-1.512c1.016,-1.008 1.524,-2.408 1.524,-4.2v-12.048h-2.064v2.424c-0.06333,-0.19 -0.13667,-0.37333 -0.22,-0.55c-0.08467,-0.18 -0.17933,-0.35267 -0.284,-0.518c-0.13867,-0.21867 -0.304,-0.416 -0.496,-0.592c-0.096,-0.088 -0.19867,-0.17067 -0.308,-0.248c-0.328,-0.232 -0.728,-0.416 -1.2,-0.552c-0.472,-0.136 -1.036,-0.204 -1.692,-0.204c-1.088,0 -1.976,0.176 -2.664,0.528c-0.688,0.352 -1.236,0.828 -1.644,1.428c-0.408,0.6 -0.688,1.3 -0.84,2.1c-0.152,0.8 -0.228,1.648 -0.228,2.544c0,0.992 0.076,1.892 0.228,2.7c0.152,0.808 0.432,1.5 0.84,2.076c0.408,0.576 0.956,1.024 1.644,1.344c0.688,0.32 1.576,0.48 2.664,0.48c1.248,0 2.192,-0.212 2.832,-0.636c0.12933,-0.08533 0.251,-0.178 0.365,-0.278c0.40467,-0.35267 0.715,-0.79333 0.931,-1.322zM219.244,464.958c0.02333,0.02933 0.046,0.05933 0.068,0.09c0.304,0.416 0.516,0.928 0.636,1.536c0.12,0.608 0.18,1.28 0.18,2.016c0,0.768 -0.06,1.456 -0.18,2.064c-0.12,0.608 -0.332,1.12 -0.636,1.536c-0.304,0.416 -0.712,0.732 -1.224,0.948c-0.512,0.216 -1.16,0.324 -1.944,0.324c-0.768,0 -1.38,-0.128 -1.836,-0.384c-0.456,-0.256 -0.804,-0.604 -1.044,-1.044c-0.24,-0.44 -0.396,-0.956 -0.468,-1.548c-0.072,-0.592 -0.108,-1.224 -0.108,-1.896c0,-0.624 0.032,-1.232 0.096,-1.824c0.064,-0.592 0.216,-1.112 0.456,-1.56c0.24,-0.448 0.588,-0.808 1.044,-1.08c0.456,-0.272 1.076,-0.408 1.86,-0.408c0.784,0 1.432,0.116 1.944,0.348c0.352,0.15933 0.65467,0.362 0.908,0.608c0.08867,0.086 0.17133,0.17733 0.248,0.274zM299.551,474.714c-0.626,-0.636 -1.095,-1.45967 -1.407,-2.471c-0.29333,-0.952 -0.44,-2.12633 -0.44,-3.523c0,-1.39667 0.14667,-2.571 0.44,-3.523c0.312,-1.01133 0.781,-1.835 1.407,-2.471c0.63467,-0.644 1.40733,-1.098 2.318,-1.362c0.83533,-0.24267 1.78033,-0.364 2.835,-0.364c1.05467,0 1.99967,0.12133 2.835,0.364c0.91333,0.26533 1.68367,0.72133 2.311,1.368c0.61533,0.63467 1.07867,1.45633 1.39,2.465c0.29333,0.952 0.44,2.12633 0.44,3.523c0,1.39667 -0.14667,2.571 -0.44,3.523c-0.31133,1.00867 -0.77467,1.83033 -1.39,2.465c-0.62733,0.64667 -1.39767,1.10267 -2.311,1.368c-0.83533,0.24267 -1.78033,0.364 -2.835,0.364c-1.05467,0 -1.99967,-0.12133 -2.835,-0.364c-0.91067,-0.264 -1.68333,-0.718 -2.318,-1.362zM134.224,475.209l-5.598,-13.969h4.407l3.311,8.988l3.129,-8.988h4.237l-5.157,13.876c-0.31667,0.85 -0.643,1.611 -0.979,2.283c-0.368,0.73667 -0.81833,1.37133 -1.351,1.904c-0.558,0.558 -1.22467,0.98233 -2,1.273c-0.75333,0.28267 -1.67033,0.424 -2.751,0.424h-1v-3.776h1c0.86467,0 1.478,-0.16267 1.84,-0.488c0.36,-0.32333 0.664,-0.83233 0.912,-1.527zM135.288,475.176c-0.32,1.04 -0.756,1.808 -1.308,2.304c-0.552,0.496 -1.388,0.744 -2.508,0.744v1.776c0.35533,0 0.68867,-0.01633 1,-0.049c0.53,-0.056 0.99667,-0.15967 1.4,-0.311c0.64,-0.24 1.188,-0.588 1.644,-1.044c0.456,-0.456 0.844,-1.004 1.164,-1.644c0.32,-0.64 0.632,-1.368 0.936,-2.184l4.284,-11.528l0.372,-1h-2.088l-3.296,9.466l-0.427,1.225l-0.021,0.061h-0.144l-0.021,-0.058l-0.449,-1.219l-3.49,-9.475h-2.232l0.401,1zM163.248,469.587l2.469,-8.347h3.936l2.558,8.398l2.113,-8.398h6.493l3.311,8.988l3.129,-8.988h4.237l-5.157,13.876c-0.31667,0.85 -0.643,1.611 -0.979,2.283c-0.368,0.73667 -0.81833,1.37133 -1.351,1.904c-0.558,0.558 -1.22467,0.98233 -2,1.273c-0.75333,0.28267 -1.67033,0.424 -2.751,0.424h-1v-3.776h1c0.86467,0 1.478,-0.16267 1.84,-0.488c0.36,-0.32333 0.664,-0.83233 0.912,-1.527l-4.387,-10.948l-3.317,11.939h-4.07l-2.549,-8.427l-2.568,8.427h-4.075l-4.044,-14.96h4.15zM163.26,473.073l-0.012,0.039h-0.144l-0.012,-0.046l-0.401,-1.596l-2.323,-9.23h-2.064l0.27,1l3.234,11.96h2.568l2.788,-9.149l0.437,-1.435l0.015,-0.048h0.144l0.015,0.048l0.434,1.436l2.767,9.148h2.568l3.322,-11.96l0.142,-0.509l0.136,-0.491h-2.04l-2.328,9.252l-0.396,1.572l-0.012,0.048h-0.144l-0.012,-0.039l-0.474,-1.556l-2.826,-9.277h-2.448l-2.737,9.251zM178.289,463.24l4.783,11.936c-0.32,1.04 -0.756,1.808 -1.308,2.304c-0.552,0.496 -1.388,0.744 -2.508,0.744v1.776c0.35533,0 0.68867,-0.01633 1,-0.049c0.53,-0.056 0.99667,-0.15967 1.4,-0.311c0.64,-0.24 1.188,-0.588 1.644,-1.044c0.456,-0.456 0.844,-1.004 1.164,-1.644c0.32,-0.64 0.632,-1.368 0.936,-2.184l4.284,-11.528l0.372,-1h-2.088l-3.296,9.466l-0.427,1.225l-0.021,0.061h-0.144l-0.021,-0.058l-0.449,-1.219l-3.49,-9.475h-2.232l0.174,0.433zM229.552,476.2h-4.064v-14.96h4.064zM263.563,476.2l-0.085,-0.605c-0.21133,0.134 -0.43167,0.24933 -0.661,0.346c-0.43467,0.18333 -0.89167,0.31333 -1.371,0.39c-0.45267,0.07267 -0.90533,0.109 -1.358,0.109c-0.968,0 -1.788,-0.125 -2.46,-0.375c-0.71533,-0.26533 -1.29233,-0.644 -1.731,-1.136c-0.43467,-0.48733 -0.74,-1.06867 -0.916,-1.744c-0.158,-0.60267 -0.237,-1.259 -0.237,-1.969v-9.976h4.064v9.208c0,0.442 0.02767,0.83233 0.083,1.171c0.04067,0.24733 0.11167,0.44633 0.213,0.597c0.076,0.112 0.19,0.20133 0.342,0.268c0.2,0.088 0.486,0.132 0.858,0.132c0.35133,0 0.69533,-0.02467 1.032,-0.074c0.26133,-0.038 0.50233,-0.11867 0.723,-0.242c0.212,-0.11933 0.409,-0.29467 0.591,-0.526c0.172,-0.21867 0.32867,-0.51833 0.47,-0.899v-9.635h4.064v14.96zM263.424,474.384c0.304,-0.272 0.552,-0.624 0.744,-1.056l0.213,1.51l0.051,0.362h1.752v-12.96h-2.064v8.808c-0.15733,0.45933 -0.339,0.843 -0.545,1.151c-0.04533,0.068 -0.09167,0.13233 -0.139,0.193c-0.264,0.336 -0.56,0.596 -0.888,0.78c-0.328,0.184 -0.684,0.304 -1.068,0.36c-0.384,0.056 -0.776,0.084 -1.176,0.084c-0.512,0 -0.932,-0.072 -1.26,-0.216c-0.328,-0.144 -0.584,-0.352 -0.768,-0.624c-0.184,-0.272 -0.308,-0.604 -0.372,-0.996c-0.064,-0.392 -0.096,-0.836 -0.096,-1.332v-8.208h-2.064v8.976c0,0.624 0.068,1.196 0.204,1.716c0.136,0.52 0.368,0.964 0.696,1.332c0.328,0.368 0.772,0.656 1.332,0.864c0.56,0.208 1.264,0.312 2.112,0.312c0.4,0 0.8,-0.032 1.2,-0.096c0.4,-0.064 0.78,-0.172 1.14,-0.324c0.31933,-0.13467 0.61667,-0.31667 0.892,-0.546c0.03467,-0.02933 0.06933,-0.05933 0.104,-0.09zM296.104,476.2h-4.064v-14.96h4.064zM194.46,475.308c0.36,0.024 0.7,0.036 1.02,0.036c1.6,0 2.82,-0.3 3.66,-0.9c0.84,-0.6 1.26,-1.548 1.26,-2.844c0,-0.624 -0.072,-1.152 -0.216,-1.584c-0.144,-0.432 -0.376,-0.796 -0.696,-1.092c-0.32,-0.296 -0.74,-0.544 -1.26,-0.744c-0.52,-0.2 -1.148,-0.388 -1.884,-0.564c-0.512,-0.112 -0.928,-0.22 -1.248,-0.324c-0.32,-0.104 -0.568,-0.232 -0.744,-0.384c-0.176,-0.152 -0.3,-0.332 -0.372,-0.54c-0.072,-0.208 -0.108,-0.48 -0.108,-0.816c0,-0.736 0.228,-1.232 0.684,-1.488c0.456,-0.256 1.14,-0.384 2.052,-0.384c0.608,0 1.184,0.048 1.728,0.144c0.13467,0.024 0.264,0.04933 0.388,0.076c0.37667,0.08067 0.70333,0.17533 0.98,0.284l0.085,-1.032l0.059,-0.72c-0.32,-0.128 -0.788,-0.232 -1.404,-0.312c-0.616,-0.08 -1.236,-0.12 -1.86,-0.12c-1.552,0 -2.716,0.32 -3.492,0.96c-0.776,0.64 -1.164,1.488 -1.164,2.544c0,0.544 0.056,1.016 0.168,1.416c0.112,0.4 0.304,0.744 0.576,1.032c0.272,0.288 0.64,0.536 1.104,0.744c0.464,0.208 1.056,0.392 1.776,0.552c0.624,0.144 1.124,0.28 1.5,0.408c0.376,0.128 0.668,0.276 0.876,0.444c0.208,0.168 0.348,0.376 0.42,0.624c0.072,0.248 0.108,0.564 0.108,0.948c0,0.768 -0.252,1.292 -0.756,1.572c-0.504,0.28 -1.252,0.42 -2.244,0.42c-0.288,0 -0.604,-0.012 -0.948,-0.036c-0.344,-0.024 -0.684,-0.06 -1.02,-0.108c-0.266,-0.038 -0.52467,-0.081 -0.776,-0.129c-0.066,-0.01267 -0.13133,-0.02567 -0.196,-0.039c-0.312,-0.064 -0.58,-0.128 -0.804,-0.192v1.776c0.176,0.048 0.412,0.1 0.708,0.156c0.296,0.056 0.62,0.1 0.972,0.132c0.352,0.032 0.708,0.06 1.068,0.084zM302.148,475.116c0.744,0.216 1.596,0.324 2.556,0.324c0.96,0 1.812,-0.108 2.556,-0.324c0.744,-0.216 1.368,-0.584 1.872,-1.104c0.504,-0.52 0.888,-1.208 1.152,-2.064c0.264,-0.856 0.396,-1.932 0.396,-3.228c0,-1.296 -0.132,-2.372 -0.396,-3.228c-0.264,-0.856 -0.648,-1.544 -1.152,-2.064c-0.504,-0.52 -1.128,-0.888 -1.872,-1.104c-0.744,-0.216 -1.596,-0.324 -2.556,-0.324c-0.96,0 -1.812,0.108 -2.556,0.324c-0.744,0.216 -1.372,0.584 -1.884,1.104c-0.512,0.52 -0.9,1.208 -1.164,2.064c-0.264,0.856 -0.396,1.932 -0.396,3.228c0,1.296 0.132,2.372 0.396,3.228c0.264,0.856 0.652,1.544 1.164,2.064c0.512,0.52 1.14,0.888 1.884,1.104zM227.552,462.24h-1.064v12.96h2.064v-12.96zM294.104,462.24h-1.064v12.96h2.064v-12.96zM306.54,473.448c-0.488,0.16 -1.1,0.24 -1.836,0.24c-0.704,0 -1.296,-0.08 -1.776,-0.24c-0.48,-0.16 -0.872,-0.432 -1.176,-0.816c-0.304,-0.384 -0.52,-0.896 -0.648,-1.536c-0.128,-0.64 -0.192,-1.432 -0.192,-2.376c0,-0.944 0.06,-1.736 0.18,-2.376c0.12,-0.64 0.328,-1.152 0.624,-1.536c0.296,-0.384 0.688,-0.66 1.176,-0.828c0.488,-0.168 1.092,-0.252 1.812,-0.252c0.704,0 1.3,0.084 1.788,0.252c0.488,0.168 0.88,0.444 1.176,0.828c0.296,0.384 0.508,0.896 0.636,1.536c0.128,0.64 0.192,1.432 0.192,2.376c0,0.944 -0.06,1.736 -0.18,2.376c-0.12,0.64 -0.324,1.152 -0.612,1.536c-0.288,0.384 -0.676,0.656 -1.164,0.816zM151.977,471.61c0.21667,-0.29667 0.37067,-0.67667 0.462,-1.14c0.10733,-0.544 0.161,-1.16733 0.161,-1.87c0,-0.67067 -0.05367,-1.278 -0.161,-1.822c-0.09133,-0.46333 -0.24533,-0.84333 -0.462,-1.14c-0.20067,-0.27467 -0.47733,-0.49167 -0.83,-0.651c-0.38067,-0.17267 -0.891,-0.259 -1.531,-0.259c-0.6,0 -1.04933,0.089 -1.348,0.267c-0.29733,0.17733 -0.52233,0.40833 -0.675,0.693c-0.17867,0.334 -0.293,0.73233 -0.343,1.195c-0.06,0.55667 -0.09,1.129 -0.09,1.717c0,0.63133 0.03367,1.223 0.101,1.775c0.05667,0.46533 0.17433,0.862 0.353,1.19c0.148,0.272 0.36667,0.489 0.656,0.651c0.304,0.17067 0.75267,0.256 1.346,0.256c0.64933,0 1.16767,-0.08167 1.555,-0.245c0.342,-0.14467 0.61067,-0.35033 0.806,-0.617zM218.505,471.61c0.21667,-0.29667 0.37067,-0.67667 0.462,-1.14c0.10733,-0.544 0.161,-1.16733 0.161,-1.87c0,-0.67067 -0.05367,-1.278 -0.161,-1.822c-0.09133,-0.46333 -0.24533,-0.84333 -0.462,-1.14c-0.20067,-0.27467 -0.47733,-0.49167 -0.83,-0.651c-0.38067,-0.17267 -0.891,-0.259 -1.531,-0.259c-0.6,0 -1.04933,0.089 -1.348,0.267c-0.29733,0.17733 -0.52233,0.40833 -0.675,0.693c-0.17867,0.334 -0.293,0.73233 -0.343,1.195c-0.06,0.55667 -0.09,1.129 -0.09,1.717c0,0.63133 0.03367,1.223 0.101,1.775c0.05667,0.46533 0.17433,0.862 0.353,1.19c0.148,0.272 0.36667,0.489 0.656,0.651c0.304,0.17067 0.75267,0.256 1.346,0.256c0.64933,0 1.16767,-0.08167 1.555,-0.245c0.342,-0.14467 0.61067,-0.35033 0.806,-0.617zM278.544,471.693c0.18467,-0.35733 0.30567,-0.776 0.363,-1.256c0.06733,-0.56067 0.101,-1.133 0.101,-1.717c0,-0.628 -0.037,-1.22467 -0.111,-1.79c-0.06467,-0.48933 -0.18933,-0.90933 -0.374,-1.26c-0.15067,-0.286 -0.37067,-0.513 -0.66,-0.681c-0.30133,-0.174 -0.73833,-0.261 -1.311,-0.261c-0.64,0 -1.15033,0.08633 -1.531,0.259c-0.35067,0.15867 -0.63,0.38233 -0.838,0.671c-0.22867,0.316 -0.39267,0.71233 -0.492,1.189c-0.114,0.54933 -0.171,1.17367 -0.171,1.873c0,0.68267 0.057,1.294 0.171,1.834c0.09867,0.46933 0.26267,0.86267 0.492,1.18c0.21067,0.292 0.49367,0.52167 0.849,0.689c0.378,0.17667 0.88467,0.265 1.52,0.265c0.58,0 1.01767,-0.09067 1.313,-0.272c0.298,-0.18333 0.52433,-0.42433 0.679,-0.723zM306.904,472.032c0.19467,-0.25933 0.33767,-0.63267 0.429,-1.12c0.10867,-0.57933 0.163,-1.31 0.163,-2.192c0,-0.878 -0.05767,-1.60467 -0.173,-2.18c-0.09733,-0.48733 -0.24633,-0.861 -0.447,-1.121c-0.174,-0.226 -0.41067,-0.39033 -0.71,-0.493c-0.382,-0.132 -0.86933,-0.198 -1.462,-0.198c-0.60867,0 -1.104,0.066 -1.486,0.198c-0.29933,0.10267 -0.536,0.267 -0.71,0.493c-0.198,0.25667 -0.34233,0.62633 -0.433,1.109c-0.10867,0.57933 -0.163,1.31 -0.163,2.192c0,0.878 0.05767,1.60467 0.173,2.18c0.096,0.48267 0.24633,0.853 0.451,1.111c0.18067,0.22867 0.41667,0.39133 0.708,0.488c0.37733,0.126 0.864,0.189 1.46,0.189c0.62933,0 1.13733,-0.06333 1.524,-0.19c0.28867,-0.09467 0.514,-0.25 0.676,-0.466zM202.88,473.808c0,-0.97133 0.248,-1.645 0.744,-2.021c0.41067,-0.31133 1.008,-0.467 1.792,-0.467c0.762,0 1.351,0.15267 1.767,0.458c0.51267,0.37533 0.769,1.052 0.769,2.03c0,1.01 -0.25633,1.70267 -0.769,2.078c-0.416,0.30533 -1.005,0.458 -1.767,0.458c-0.784,0 -1.38133,-0.15567 -1.792,-0.467c-0.496,-0.376 -0.744,-1.06567 -0.744,-2.069zM284.696,473.808c0,-0.97133 0.248,-1.645 0.744,-2.021c0.41067,-0.31133 1.008,-0.467 1.792,-0.467c0.762,0 1.351,0.15267 1.767,0.458c0.51267,0.37533 0.769,1.052 0.769,2.03c0,1.01 -0.25633,1.70267 -0.769,2.078c-0.416,0.30533 -1.005,0.458 -1.767,0.458c-0.784,0 -1.38133,-0.15567 -1.792,-0.467c-0.496,-0.376 -0.744,-1.06567 -0.744,-2.069zM204.228,475.08c0.232,0.176 0.628,0.264 1.188,0.264c0.544,0 0.936,-0.088 1.176,-0.264c0.24,-0.176 0.36,-0.6 0.36,-1.272c0,-0.64 -0.12,-1.048 -0.36,-1.224c-0.24,-0.176 -0.632,-0.264 -1.176,-0.264c-0.56,0 -0.956,0.088 -1.188,0.264c-0.232,0.176 -0.348,0.584 -0.348,1.224c0,0.672 0.116,1.096 0.348,1.272zM286.044,475.08c0.232,0.176 0.628,0.264 1.188,0.264c0.544,0 0.936,-0.088 1.176,-0.264c0.24,-0.176 0.36,-0.6 0.36,-1.272c0,-0.64 -0.12,-1.048 -0.36,-1.224c-0.24,-0.176 -0.632,-0.264 -1.176,-0.264c-0.56,0 -0.956,0.088 -1.188,0.264c-0.232,0.176 -0.348,0.584 -0.348,1.224c0,0.672 0.116,1.096 0.348,1.272z">
</path>
</g>
</svg>
